<svg xmlns="http://www.w3.org/2000/svg" xmlns:osb="http://www.openswatchbook.org/uri/2009/osb" xmlns:svg="http://www.w3.org/2000/svg" id="svg9044" width="744.094" height="1052.362" version="1.1"><defs id="defs9046"><linearGradient id="linearGradient9562" osb:paint="solid"><stop id="stop9564" offset="0" stop-color="#000" stop-opacity="1"/></linearGradient></defs><metadata id="metadata9049"/><g id="layer1"><path id="path9052" fill="none" stroke="#767676" stroke-linecap="butt" stroke-linejoin="miter" stroke-opacity="1" stroke-width=".76" d="m 187.76822,435.59613 66.00247,30.72947 70.02703,-17.5597 c 0,0 66.00248,36.5827 70.02702,38.04601 4.02453,1.46331 84.41771,-38.3123 84.41771,-38.3123 l 104.73573,-34.12145 -76.46629,-98.04163 58.7583,-35.85104"/><text id="text9568" x="325.774" y="370.004" fill="#000" fill-opacity="1" stroke="none" font-family="Calibri" font-size="14" font-stretch="normal" font-style="normal" font-variant="normal" font-weight="normal" letter-spacing="0" text-anchor="start" word-spacing="0" writing-mode="lr-tb" xml:space="preserve" style="text-align:start;line-height:125%;-inkscape-font-specification:Calibri"><tspan id="tspan9570" x="325.774" y="370.004">A chain shape</tspan></text><path id="path6867" fill="#b0ddb3" fill-opacity="1" stroke="#7d7d7d" stroke-dasharray="none" stroke-dashoffset="0" stroke-linecap="round" stroke-linejoin="round" stroke-miterlimit="4" stroke-opacity="1" stroke-width="1" d="m 244.45692,611.93567 a 2.5253813,2.5253813 0 1 1 -5.05077,0 2.5253813,2.5253813 0 1 1 5.05077,0 z" transform="translate(-54.372373,-177.18205)"/><path id="path9620" fill="#b0ddb3" fill-opacity="1" stroke="#7d7d7d" stroke-dasharray="none" stroke-dashoffset="0" stroke-linecap="round" stroke-linejoin="round" stroke-miterlimit="4" stroke-opacity="1" stroke-width="1" d="m 244.45692,611.93567 a 2.5253813,2.5253813 0 1 1 -5.05077,0 2.5253813,2.5253813 0 1 1 5.05077,0 z" transform="translate(11.817253,-145.14071)"/><path id="path9622" fill="#b0ddb3" fill-opacity="1" stroke="#7d7d7d" stroke-dasharray="none" stroke-dashoffset="0" stroke-linecap="round" stroke-linejoin="round" stroke-miterlimit="4" stroke-opacity="1" stroke-width="1" d="m 244.45692,611.93567 a 2.5253813,2.5253813 0 1 1 -5.05077,0 2.5253813,2.5253813 0 1 1 5.05077,0 z" transform="translate(81.49165,-163.51344)"/><path id="path9624" fill="#b0ddb3" fill-opacity="1" stroke="#7d7d7d" stroke-dasharray="none" stroke-dashoffset="0" stroke-linecap="round" stroke-linejoin="round" stroke-miterlimit="4" stroke-opacity="1" stroke-width="1" d="m 244.45692,611.93567 a 2.5253813,2.5253813 0 1 1 -5.05077,0 2.5253813,2.5253813 0 1 1 5.05077,0 z" transform="translate(235.87634,-162.86043)"/><path id="path9626" fill="#b0ddb3" fill-opacity="1" stroke="#7d7d7d" stroke-dasharray="none" stroke-dashoffset="0" stroke-linecap="round" stroke-linejoin="round" stroke-miterlimit="4" stroke-opacity="1" stroke-width="1" d="m 244.45692,611.93567 a 2.5253813,2.5253813 0 1 1 -5.05077,0 2.5253813,2.5253813 0 1 1 5.05077,0 z" transform="translate(152.3854,-125.51272)"/><path id="path9628" fill="#b0ddb3" fill-opacity="1" stroke="#7d7d7d" stroke-dasharray="none" stroke-dashoffset="0" stroke-linecap="round" stroke-linejoin="round" stroke-miterlimit="4" stroke-opacity="1" stroke-width="1" d="m 244.45692,611.93567 a 2.5253813,2.5253813 0 1 1 -5.05077,0 2.5253813,2.5253813 0 1 1 5.05077,0 z" transform="translate(341.33682,-197.58559)"/><path id="path9630" fill="#b0ddb3" fill-opacity="1" stroke="#7d7d7d" stroke-dasharray="none" stroke-dashoffset="0" stroke-linecap="round" stroke-linejoin="round" stroke-miterlimit="4" stroke-opacity="1" stroke-width="1" d="m 244.45692,611.93567 a 2.5253813,2.5253813 0 1 1 -5.05077,0 2.5253813,2.5253813 0 1 1 5.05077,0 z" transform="translate(265.17257,-295.86296)"/><path id="path9632" fill="#b0ddb3" fill-opacity="1" stroke="#7d7d7d" stroke-dasharray="none" stroke-dashoffset="0" stroke-linecap="round" stroke-linejoin="round" stroke-miterlimit="4" stroke-opacity="1" stroke-width="1" d="m 244.45692,611.93567 a 2.5253813,2.5253813 0 1 1 -5.05077,0 2.5253813,2.5253813 0 1 1 5.05077,0 z" transform="translate(323.65299,-332.43511)"/><text id="text9634" x="196.41" y="429.327" fill="#000" fill-opacity="1" stroke="none" font-family="Calibri" font-size="14" font-stretch="normal" font-style="normal" font-variant="normal" font-weight="normal" letter-spacing="0" text-anchor="start" word-spacing="0" writing-mode="lr-tb" xml:space="preserve" style="text-align:start;line-height:125%;-inkscape-font-specification:Calibri"><tspan id="tspan9636" x="196.41" y="429.327">isolated</tspan></text><text id="text9638" x="502.991" y="282.35" fill="#000" fill-opacity="1" stroke="none" font-family="Calibri" font-size="14" font-stretch="normal" font-style="normal" font-variant="normal" font-weight="normal" letter-spacing="0" text-anchor="start" word-spacing="0" writing-mode="lr-tb" xml:space="preserve" style="text-align:start;line-height:125%;-inkscape-font-specification:Calibri"><tspan id="tspan9640" x="502.991" y="282.35">isolated</tspan></text></g></svg>