<svg xmlns="http://www.w3.org/2000/svg" xmlns:svg="http://www.w3.org/2000/svg" id="svg6349" width="744.094" height="1052.362" version="1.1"><defs id="defs6351"><marker id="Arrow1Send" orient="auto" overflow="visible" refX="0" refY="0"><path id="path4500" fill-rule="evenodd" stroke="#000" stroke-width="1pt" marker-start="none" d="M 0.0,0.0 L 5.0,-5.0 L -12.5,0.0 L 5.0,5.0 L 0.0,0.0 z" transform="scale(0.2) rotate(180) translate(6,0)"/></marker><marker id="Arrow1Mend" orient="auto" overflow="visible" refX="0" refY="0"><path id="path4494" fill-rule="evenodd" stroke="#000" stroke-width="1pt" marker-start="none" d="M 0.0,0.0 L 5.0,-5.0 L -12.5,0.0 L 5.0,5.0 L 0.0,0.0 z" transform="scale(0.4) rotate(180) translate(10,0)"/></marker><marker id="Arrow1Lend" orient="auto" overflow="visible" refX="0" refY="0"><path id="path4488" fill-rule="evenodd" stroke="#000" stroke-width="1pt" marker-start="none" d="M 0.0,0.0 L 5.0,-5.0 L -12.5,0.0 L 5.0,5.0 L 0.0,0.0 z" transform="scale(0.8) rotate(180) translate(12.5,0)"/></marker><marker id="TriangleOutL" orient="auto" overflow="visible" refX="0" refY="0"><path id="path4628" fill-rule="evenodd" stroke="#000" stroke-width="1pt" marker-start="none" d="M 5.77,0.0 L -2.88,5.0 L -2.88,-5.0 L 5.77,0.0 z" transform="scale(0.8)"/></marker></defs><metadata id="metadata6354"/><g id="layer1"><path id="path6357" fill="none" stroke="#7d7d7d" stroke-dasharray="none" stroke-linecap="round" stroke-linejoin="miter" stroke-miterlimit="4" stroke-opacity="1" stroke-width="1" d="m 289.91378,613.4509 255.55849,1.51523"/><path id="path6867" fill="#b0ddb3" fill-opacity="1" stroke="#7d7d7d" stroke-dasharray="none" stroke-dashoffset="0" stroke-linecap="round" stroke-linejoin="round" stroke-miterlimit="4" stroke-opacity="1" stroke-width="1" d="m 244.45692,611.93567 a 2.5253813,2.5253813 0 1 1 -5.05077,0 2.5253813,2.5253813 0 1 1 5.05077,0 z" transform="translate(47.982246,1.5152288)"/><path id="path6867-1" fill="#b0ddb3" fill-opacity="1" stroke="#7d7d7d" stroke-dasharray="none" stroke-dashoffset="0" stroke-linecap="round" stroke-linejoin="round" stroke-miterlimit="4" stroke-opacity="1" stroke-width="1" d="m 244.45692,611.93567 a 2.5253813,2.5253813 0 1 1 -5.05077,0 2.5253813,2.5253813 0 1 1 5.05077,0 z" transform="translate(181.32238,2.525385)"/><path id="path6867-1-9" fill="#b0ddb3" fill-opacity="1" stroke="#7d7d7d" stroke-dasharray="none" stroke-dashoffset="0" stroke-linecap="round" stroke-linejoin="round" stroke-miterlimit="4" stroke-opacity="1" stroke-width="1" d="m 244.45692,611.93567 a 2.5253813,2.5253813 0 1 1 -5.05077,0 2.5253813,2.5253813 0 1 1 5.05077,0 z" transform="translate(304.561,3.5355374)"/><rect id="rect6905" width="47.982" height="41.921" x="375.231" y="569.509" fill="#d7e3f4" fill-opacity="1" stroke="#7d7d7d" stroke-dasharray="none" stroke-dashoffset="0" stroke-linecap="round" stroke-linejoin="round" stroke-miterlimit="4" stroke-opacity="1" stroke-width="1"/><path id="path6907" fill="none" stroke="#000" stroke-dasharray="none" stroke-linecap="butt" stroke-linejoin="miter" stroke-miterlimit="4" stroke-opacity="1" stroke-width="4" marker-end="url(#Arrow1Send)" d="m 373.75644,552.33667 51.0127,0"/><path id="path7843" fill="none" stroke="#000" stroke-linecap="butt" stroke-linejoin="miter" stroke-opacity="1" stroke-width="1" marker-end="url(#Arrow1Mend)" marker-mid="none" marker-start="none" d="m 454.54834,609.91537 -28.28427,0"/><text id="text8973" x="382.909" y="658.348" fill="#000" fill-opacity="1" stroke="none" font-family="Calibri" font-size="14" font-stretch="normal" font-style="normal" font-variant="normal" font-weight="normal" letter-spacing="0" text-anchor="start" word-spacing="0" writing-mode="lr-tb" xml:space="preserve" style="text-align:start;line-height:125%;-inkscape-font-specification:Calibri"><tspan id="tspan8975" x="382.909" y="658.348">ghost collision</tspan></text><text id="text8977" x="370.221" y="541.73" fill="#000" fill-opacity="1" stroke="none" font-family="Calibri" font-size="14" font-stretch="normal" font-style="normal" font-variant="normal" font-weight="normal" letter-spacing="0" text-anchor="start" word-spacing="0" writing-mode="lr-tb" xml:space="preserve" style="text-align:start;line-height:125%;-inkscape-font-specification:Calibri"><tspan id="tspan8979" x="370.221" y="541.73">box motion</tspan></text><text id="text8981" x="439.286" y="606.291" fill="#000" fill-opacity="1" stroke="none" font-family="Calibri" font-size="14" font-stretch="normal" font-style="normal" font-variant="normal" font-weight="normal" letter-spacing="0" text-anchor="start" word-spacing="0" writing-mode="lr-tb" xml:space="preserve" style="text-align:start;line-height:125%;-inkscape-font-specification:Calibri"><tspan id="tspan8983" x="439.286" y="606.291">internal normal</tspan></text><text id="text8985" x="328.929" y="633.434" fill="#000" fill-opacity="1" stroke="none" font-family="Calibri" font-size="14" font-stretch="normal" font-style="normal" font-variant="normal" font-weight="normal" letter-spacing="0" text-anchor="start" word-spacing="0" writing-mode="lr-tb" xml:space="preserve" style="text-align:start;line-height:125%;-inkscape-font-specification:Calibri"><tspan id="tspan8987" x="328.929" y="633.434">edge1</tspan></text><text id="text8985-3" x="460.783" y="633.362" fill="#000" fill-opacity="1" stroke="none" font-family="Calibri" font-size="14" font-stretch="normal" font-style="normal" font-variant="normal" font-weight="normal" letter-spacing="0" text-anchor="start" word-spacing="0" writing-mode="lr-tb" xml:space="preserve" style="text-align:start;line-height:125%;-inkscape-font-specification:Calibri"><tspan id="tspan8987-0" x="460.783" y="633.362">edge2</tspan></text></g></svg>