<svg xmlns="http://www.w3.org/2000/svg" xmlns:svg="http://www.w3.org/2000/svg" id="svg5128" width="744.094" height="1052.362" version="1.1"><metadata id="metadata5133"/><g id="layer1"><rect id="rect5140" width="56.569" height="42.426" x="314.034" y="471.861" fill="#d7e3f4" fill-opacity="1" stroke="#000" stroke-dasharray="none" stroke-dashoffset="0" stroke-linecap="round" stroke-linejoin="round" stroke-miterlimit="4" stroke-opacity="1" stroke-width="1"/><path id="path5700" fill="none" stroke="#7d7d7d" stroke-dasharray="1 3" stroke-dashoffset="0" stroke-linecap="round" stroke-linejoin="round" stroke-miterlimit="4" stroke-opacity="1" stroke-width="1" d="M 329.9375,403.28125 A 3.214607,3.214607 0 0 0 326.71875,406.5 l 0,42.4375 a 3.214607,3.214607 0 0 0 3.21875,3.21875 l 56.5625,0 a 3.214607,3.214607 0 0 0 3.21875,-3.21875 l 0,-42.4375 A 3.214607,3.214607 0 0 0 386.5,403.28125 l -56.5625,0 z" transform="translate(-15.980776,64.888322)"/><rect id="rect5138" width="53.538" height="47.477" x="319.461" y="520.264" fill="#d7e3f4" fill-opacity="1" stroke="#000" stroke-dasharray="none" stroke-dashoffset="0" stroke-linecap="round" stroke-linejoin="round" stroke-miterlimit="4" stroke-opacity="1" stroke-width="1"/><path id="path5720" fill="none" stroke="#7d7d7d" stroke-dasharray="1 3" stroke-dashoffset="0" stroke-linecap="round" stroke-linejoin="round" stroke-miterlimit="4" stroke-opacity="1" stroke-width="1" d="m 319.40625,422.9375 a 3.2930238,3.2930238 0 0 0 -2.9375,3.28125 l 0,47.46875 a 3.2930238,3.2930238 0 0 0 3.28125,3.28125 l 53.53125,0 a 3.2930238,3.2930238 0 0 0 3.28125,-3.28125 l 0,-47.46875 a 3.2930238,3.2930238 0 0 0 -3.28125,-3.28125 l -53.53125,0 a 3.2930238,3.2930238 0 0 0 -0.34375,0 z" transform="translate(-0.59098611,95.046407)"/><path id="path5136" fill="none" stroke="#000" stroke-linecap="butt" stroke-linejoin="miter" stroke-opacity="1" stroke-width="1" d="m 181.82746,572.53972 313.14729,0"/><rect id="rect5750" width="321.269" height="6.071" x="178.571" y="569.862" fill="none" stroke="#7d7d7d" stroke-dasharray="1 3" stroke-dashoffset="0" stroke-linecap="round" stroke-linejoin="round" stroke-miterlimit="4" stroke-opacity="1" stroke-width="1" ry="3.036"/><text id="text5770" x="393.959" y="501.071" fill="#000" fill-opacity="1" stroke="none" font-family="Calibri" font-size="14" font-stretch="normal" font-style="normal" font-variant="normal" font-weight="normal" letter-spacing="0" text-anchor="start" word-spacing="0" writing-mode="lr-tb" xml:space="preserve" style="text-align:start;line-height:125%;-inkscape-font-specification:Calibri"><tspan id="tspan5772" x="393.959" y="501.071">Polygons collide</tspan><tspan id="tspan5774" x="393.959" y="518.571">with their skin</tspan></text></g></svg>