<svg xmlns="http://www.w3.org/2000/svg" xmlns:svg="http://www.w3.org/2000/svg" id="svg2" width="744.094" height="1052.362" version="1.1"><defs id="defs4"><marker id="Arrow2Mend" orient="auto" overflow="visible" refX="0" refY="0"><path id="path3648" fill-rule="evenodd" stroke-linejoin="round" stroke-width=".625" d="M 8.7185878,4.0337352 L -2.2072895,0.016013256 L 8.7185884,-4.0017078 C 6.9730900,-1.6296469 6.9831476,1.6157441 8.7185878,4.0337352 z" font-size="12" transform="scale(0.6) rotate(180) translate(0,0)"/></marker></defs><metadata id="metadata7"/><g id="layer1"><rect id="rect2816" width="233" height="13.5" x="210.5" y="541.862" fill="none" stroke="#000" stroke-dasharray="none" stroke-dashoffset="0" stroke-miterlimit="4" stroke-opacity="1" stroke-width="1"/><path id="path3592" fill="none" stroke="#000" stroke-dasharray="none" stroke-dashoffset="0" stroke-miterlimit="4" stroke-opacity="1" stroke-width="1" d="m 301.5,494.11218 a 6.25,6.25 0 1 1 -12.5,0 6.25,6.25 0 1 1 12.5,0 z" transform="translate(7.5,3)"/><path id="path3592-1" fill="none" stroke="#000" stroke-dasharray="none" stroke-dashoffset="0" stroke-miterlimit="4" stroke-opacity="1" stroke-width="1" d="m 301.5,494.11218 a 6.25,6.25 0 1 1 -12.5,0 6.25,6.25 0 1 1 12.5,0 z" transform="translate(7.5,91.25)"/><path id="path3616" fill="none" stroke="#000" stroke-dasharray=".937 1.874" stroke-dashoffset="0" stroke-linecap="butt" stroke-linejoin="miter" stroke-miterlimit="4" stroke-opacity="1" stroke-width=".937" marker-end="url(#Arrow2Mend)" d="m 302.99984,505.33064 0,71.67556"/><text id="text4066" x="319" y="499.862" fill="#000" fill-opacity="1" stroke="none" font-family="Calibri" font-size="12" font-stretch="normal" font-style="normal" font-variant="normal" font-weight="normal" text-anchor="start" writing-mode="lr-tb" xml:space="preserve" style="text-align:start;line-height:125%;-inkscape-font-specification:Calibri"><tspan id="tspan4068" x="319" y="499.862">t=0</tspan></text><text font-stretch="normal" style="text-align:start;line-height:125%;-inkscape-font-specification:Calibri" id="text4070" x="319" y="587.862" fill="#000" fill-opacity="1" stroke="none" font-family="Calibri" font-size="12" font-style="normal" font-variant="normal" font-weight="normal" text-anchor="start" writing-mode="lr" xml:space="preserve"><tspan id="tspan4074">t=1</tspan></text><text id="text4076" x="300" y="620.862" fill="#000" fill-opacity="1" stroke="none" font-family="Calibri" font-size="12" font-stretch="normal" font-style="normal" font-variant="normal" font-weight="normal" text-anchor="start" writing-mode="lr-tb" xml:space="preserve" style="text-align:start;line-height:125%;-inkscape-font-specification:Calibri"><tspan id="tspan4078" x="300" y="620.862">tunneling</tspan></text></g></svg>