<svg xmlns="http://www.w3.org/2000/svg" xmlns:svg="http://www.w3.org/2000/svg" id="svg5128" width="744.094" height="1052.362" version="1.1"><defs id="defs5130"><marker id="Arrow2Lend" orient="auto" overflow="visible" refX="0" refY="0"><path id="path3807" fill-rule="evenodd" stroke-linejoin="round" stroke-width=".625" d="M 8.7185878,4.0337352 L -2.2072895,0.016013256 L 8.7185884,-4.0017078 C 6.9730900,-1.6296469 6.9831476,1.6157441 8.7185878,4.0337352 z" font-size="12" transform="scale(1.1) rotate(180) translate(1,0)"/></marker><marker id="Arrow1Lend" orient="auto" overflow="visible" refX="0" refY="0"><path id="path3789" fill-rule="evenodd" stroke="#000" stroke-width="1pt" marker-start="none" d="M 0.0,0.0 L 5.0,-5.0 L -12.5,0.0 L 5.0,5.0 L 0.0,0.0 z" transform="scale(0.8) rotate(180) translate(12.5,0)"/></marker><marker id="Arrow2Lstart" orient="auto" overflow="visible" refX="0" refY="0"><path id="path3804" fill-rule="evenodd" stroke-linejoin="round" stroke-width=".625" d="M 8.7185878,4.0337352 L -2.2072895,0.016013256 L 8.7185884,-4.0017078 C 6.9730900,-1.6296469 6.9831476,1.6157441 8.7185878,4.0337352 z" font-size="12" transform="scale(1.1) translate(1,0)"/></marker><marker id="Arrow1Mstart" orient="auto" overflow="visible" refX="0" refY="0"><path id="path3792" fill-rule="evenodd" stroke="#000" stroke-width="1pt" marker-start="none" d="M 0.0,0.0 L 5.0,-5.0 L -12.5,0.0 L 5.0,5.0 L 0.0,0.0 z" transform="scale(0.4) translate(10,0)"/></marker><marker id="Arrow1Lstart" orient="auto" overflow="visible" refX="0" refY="0"><path id="path3786" fill-rule="evenodd" stroke="#000" stroke-width="1pt" marker-start="none" d="M 0.0,0.0 L 5.0,-5.0 L -12.5,0.0 L 5.0,5.0 L 0.0,0.0 z" transform="scale(0.8) translate(12.5,0)"/></marker></defs><metadata id="metadata5133"/><g id="layer1"><rect id="rect5140" width="56.569" height="42.426" x="314.034" y="471.861" fill="#d7e3f4" fill-opacity="1" stroke="#767676" stroke-dasharray="none" stroke-dashoffset="0" stroke-linecap="round" stroke-linejoin="round" stroke-miterlimit="4" stroke-opacity="1" stroke-width="1"/><text id="text5770" x="304.317" y="614.286" fill="#000" fill-opacity="1" stroke="none" font-family="Calibri" font-size="14" font-stretch="normal" font-style="normal" font-variant="normal" font-weight="normal" letter-spacing="0" text-anchor="start" word-spacing="0" writing-mode="lr-tb" xml:space="preserve" style="text-align:start;line-height:125%;-inkscape-font-specification:Calibri"><tspan id="tspan2993" x="304.317" y="614.286">Wheel Joint</tspan></text><path id="path2997" fill="#d7e3f4" fill-opacity="1" stroke="#767676" stroke-dasharray="none" stroke-dashoffset="0" stroke-linecap="round" stroke-linejoin="round" stroke-miterlimit="4" stroke-opacity="1" stroke-width="1" d="m 368.21428,560.75507 a 16.964285,16.964285 0 1 1 -33.92856,0 16.964285,16.964285 0 1 1 33.92856,0 z" transform="translate(-8.5714286,-2.8571429)"/><path id="path3767" fill="none" stroke="#000" stroke-linecap="butt" stroke-linejoin="miter" stroke-opacity="1" stroke-width="1" d="m 341.78571,492.36218 1.42858,98.92857"/><path id="path3779" fill="#000" fill-opacity="1" fill-rule="nonzero" stroke="none" d="m 210.71428,490.93362 a 2.1428571,2.1428571 0 1 1 -4.28571,0 2.1428571,2.1428571 0 1 1 4.28571,0 z" transform="translate(134.22402,67.175144)"/><path id="path3781" fill="none" stroke="#000" stroke-linecap="butt" stroke-linejoin="miter" stroke-opacity="1" stroke-width="1" marker-end="url(#Arrow2Lend)" marker-mid="none" marker-start="url(#Arrow2Lstart)" d="m 377.85714,506.46933 0.53571,45"/><path id="path5547" fill="none" stroke="#767676" stroke-opacity="1" marker-end="url(#Arrow2Lend)" marker-start="url(#Arrow2Lstart)" d="m 308.31133,578.19168 a 23.392857,23.392857 0 0 1 -6.687,-42.90578" transform="translate(23.392857,2.5)"/></g></svg>