<svg xmlns="http://www.w3.org/2000/svg" xmlns:svg="http://www.w3.org/2000/svg" id="svg2" width="744.094" height="1052.362" version="1.1"><defs id="defs4"><marker id="Arrow2Mstart" orient="auto" overflow="visible" refX="0" refY="0"><path id="path3660" fill-rule="evenodd" stroke-linejoin="round" stroke-width=".625" d="M 8.7185878,4.0337352 L -2.2072895,0.016013256 L 8.7185884,-4.0017078 C 6.9730900,-1.6296469 6.9831476,1.6157441 8.7185878,4.0337352 z" font-size="12" transform="scale(0.6) translate(0,0)"/></marker><marker id="Arrow2Mend" orient="auto" overflow="visible" refX="0" refY="0"><path id="path3663" fill-rule="evenodd" stroke-linejoin="round" stroke-width=".625" d="M 8.7185878,4.0337352 L -2.2072895,0.016013256 L 8.7185884,-4.0017078 C 6.9730900,-1.6296469 6.9831476,1.6157441 8.7185878,4.0337352 z" font-size="12" transform="scale(0.6) rotate(180) translate(0,0)"/></marker><marker id="Arrow1Mend" orient="auto" overflow="visible" refX="0" refY="0"><path id="path3645" fill-rule="evenodd" stroke="#000" stroke-width="1pt" marker-start="none" d="M 0.0,0.0 L 5.0,-5.0 L -12.5,0.0 L 5.0,5.0 L 0.0,0.0 z" transform="scale(0.4) rotate(180) translate(10,0)"/></marker><marker id="Arrow2Lend" orient="auto" overflow="visible" refX="0" refY="0"><path id="path3657" fill-rule="evenodd" stroke-linejoin="round" stroke-width=".625" d="M 8.7185878,4.0337352 L -2.2072895,0.016013256 L 8.7185884,-4.0017078 C 6.9730900,-1.6296469 6.9831476,1.6157441 8.7185878,4.0337352 z" font-size="12" transform="scale(1.1) rotate(180) translate(1,0)"/></marker><marker id="Arrow1Lend" orient="auto" overflow="visible" refX="0" refY="0"><path id="path3639" fill-rule="evenodd" stroke="#000" stroke-width="1pt" marker-start="none" d="M 0.0,0.0 L 5.0,-5.0 L -12.5,0.0 L 5.0,5.0 L 0.0,0.0 z" transform="scale(0.8) rotate(180) translate(12.5,0)"/></marker><marker id="Arrow2Lstart" orient="auto" overflow="visible" refX="0" refY="0"><path id="path3654" fill-rule="evenodd" stroke-linejoin="round" stroke-width=".625" d="M 8.7185878,4.0337352 L -2.2072895,0.016013256 L 8.7185884,-4.0017078 C 6.9730900,-1.6296469 6.9831476,1.6157441 8.7185878,4.0337352 z" font-size="12" transform="scale(1.1) translate(1,0)"/></marker></defs><metadata id="metadata7"/><g id="layer1"><text font-style="normal" style="text-align:start;line-height:125%;-inkscape-font-specification:Calibri" id="6" x="476.473" y="507.864" fill="#000" font-family="Calibri" font-size="12" font-stretch="normal" font-variant="normal" font-weight="normal" text-anchor="start" writing-mode="lr-tb" xml:space="preserve">x</text><text font-style="normal" style="text-align:start;line-height:125%;-inkscape-font-specification:Calibri" id="8" x="387.673" y="387.193" fill="#000" font-family="Calibri" font-size="12" font-stretch="normal" font-variant="normal" font-weight="normal" text-anchor="start" writing-mode="lr-tb" xml:space="preserve">y</text><text font-style="normal" style="text-align:start;line-height:125%;-inkscape-font-specification:Calibri" id="11" x="245.373" y="420.096" fill="#000" font-family="Calibri" font-size="12" font-stretch="normal" font-variant="normal" font-weight="normal" text-anchor="start" writing-mode="lr-tb" xml:space="preserve">CCW winding</text><path id="path4267" fill="none" stroke="#000" stroke-dasharray="none" stroke-linecap="butt" stroke-linejoin="miter" stroke-miterlimit="4" stroke-opacity="1" stroke-width="1.5" marker-end="url(#Arrow2Mend)" d="m 345.5,414.36218 -56.5,34"/><path id="path5829" fill="#d7e3f4" fill-opacity="1" stroke="#000" stroke-linecap="butt" stroke-linejoin="miter" stroke-opacity="1" stroke-width="1" d="m 289.5,466.36218 26,47.5 57.5,43.5 77.5,-70 -17,-61.5 -70.5,-4 -73.5,44.5 z"/><path id="path5241" fill="none" stroke="#000" stroke-dasharray="none" stroke-linecap="butt" stroke-linejoin="miter" stroke-miterlimit="4" stroke-opacity="1" stroke-width="1.5" marker-end="url(#Arrow2Mend)" marker-start="url(#Arrow2Mstart)" d="m 384,392.86218 0,101 95.5,0"/></g></svg>